<?xml version="1.0" encoding="UTF-8" standalone="yes"?>
<svg version="1.2" width="158.75mm" height="158.75mm" viewBox="0 0 15875 15875" preserveAspectRatio="xMidYMid" fill-rule="evenodd" stroke-width="28.222" stroke-linejoin="round" xml:space="preserve" baseProfile="tiny-ps" xmlns="http://www.w3.org/2000/svg">
  <title>bimi-svg-tiny-12-ps</title>
  <defs class="ClipPathGroup"/>
  <defs class="TextShapeIndex">
    <g/>
  </defs>
  <defs class="EmbeddedBulletChars">
    <g id="bullet-char-template-57356" transform="scale(0.00048828125,-0.00048828125)">
      <path d="M 580,1141 L 1163,571 580,0 -4,571 580,1141 Z"/>
    </g>
    <g id="bullet-char-template-57354" transform="scale(0.00048828125,-0.00048828125)">
      <path d="M 8,1128 L 1137,1128 1137,0 8,0 8,1128 Z"/>
    </g>
    <g id="bullet-char-template-10146" transform="scale(0.00048828125,-0.00048828125)">
      <path d="M 174,0 L 602,739 174,1481 1456,739 174,0 Z M 1358,739 L 309,1346 659,739 1358,739 Z"/>
    </g>
    <g id="bullet-char-template-10132" transform="scale(0.00048828125,-0.00048828125)">
      <path d="M 2015,739 L 1276,0 717,0 1260,543 174,543 174,936 1260,936 717,1481 1274,1481 2015,739 Z"/>
    </g>
    <g id="bullet-char-template-10007" transform="scale(0.00048828125,-0.00048828125)">
      <path d="M 0,-2 C -7,14 -16,27 -25,37 L 356,567 C 262,823 215,952 215,954 215,979 228,992 255,992 264,992 276,990 289,987 310,991 331,999 354,1012 L 381,999 492,748 772,1049 836,1024 860,1049 C 881,1039 901,1025 922,1006 886,937 835,863 770,784 769,783 710,716 594,584 L 774,223 C 774,196 753,168 711,139 L 727,119 C 717,90 699,76 672,76 641,76 570,178 457,381 L 164,-76 C 142,-110 111,-127 72,-127 30,-127 9,-110 8,-76 1,-67 -2,-52 -2,-32 -2,-23 -1,-13 0,-2 Z"/>
    </g>
    <g id="bullet-char-template-10004" transform="scale(0.00048828125,-0.00048828125)">
      <path d="M 285,-33 C 182,-33 111,30 74,156 52,228 41,333 41,471 41,549 55,616 82,672 116,743 169,778 240,778 293,778 328,747 346,684 L 369,508 C 377,444 397,411 428,410 L 1163,1116 C 1174,1127 1196,1133 1229,1133 1271,1133 1292,1118 1292,1087 L 1292,965 C 1292,929 1282,901 1262,881 L 442,47 C 390,-6 338,-33 285,-33 Z"/>
    </g>
    <g id="bullet-char-template-9679" transform="scale(0.00048828125,-0.00048828125)">
      <path d="M 813,0 C 632,0 489,54 383,161 276,268 223,411 223,592 223,773 276,916 383,1023 489,1130 632,1184 813,1184 992,1184 1136,1130 1245,1023 1353,916 1407,772 1407,592 1407,412 1353,268 1245,161 1136,54 992,0 813,0 Z"/>
    </g>
    <g id="bullet-char-template-8226" transform="scale(0.00048828125,-0.00048828125)">
      <path d="M 346,457 C 273,457 209,483 155,535 101,586 74,649 74,723 74,796 101,859 155,911 209,963 273,989 346,989 419,989 480,963 531,910 582,859 608,796 608,723 608,648 583,586 532,535 482,483 420,457 346,457 Z"/>
    </g>
    <g id="bullet-char-template-8211" transform="scale(0.00048828125,-0.00048828125)">
      <path d="M -4,459 L 1135,459 1135,606 -4,606 -4,459 Z"/>
    </g>
    <g id="bullet-char-template-61548" transform="scale(0.00048828125,-0.00048828125)">
      <path d="M 173,740 C 173,903 231,1043 346,1159 462,1274 601,1332 765,1332 928,1332 1067,1274 1183,1159 1299,1043 1357,903 1357,740 1357,577 1299,437 1183,322 1067,206 928,148 765,148 601,148 462,206 346,322 231,437 173,577 173,740 Z"/>
    </g>
  </defs>
  <g>
    <g id="id2" class="Master_Slide">
      <g id="bg-id2" class="Background"/>
      <g id="bo-id2" class="BackgroundObjects"/>
    </g>
  </g>
  <g class="SlideGroup">
    <g>
      <g id="container-id1">
        <g id="id1" class="Slide">
          <g class="Page">
            <g class="com.sun.star.drawing.CustomShape">
              <g id="id3">
                <rect class="BoundingBox" stroke="none" fill="none" x="-2" y="-2" width="15878" height="15878"/>
                <path fill="rgb(50,69,122)" stroke="none" d="M 7937,15874 L -1,15874 -1,-1 15874,-1 15874,15874 7937,15874 Z"/>
                <path fill="none" stroke="rgb(50,69,122)" d="M 7937,15874 L -1,15874 -1,-1 15874,-1 15874,15874 7937,15874 Z"/>
              </g>
            </g>
            <g class="com.sun.star.drawing.ClosedBezierShape">
              <g id="id4">
                <rect class="BoundingBox" stroke="none" fill="none" x="735" y="5350" width="14571" height="5493"/>
                <path fill="rgb(255,255,255)" stroke="none" d="M 13776,10011 C 13357,10373 12901,10514 12187,10514 11636,10514 11446,10367 11355,10234 11299,10157 11285,9878 11278,9702 11272,9570 11264,9031 11264,8288 L 11264,7408 C 11264,6855 11264,6212 11272,5974 11272,5897 11292,5862 11355,5834 11411,5806 11670,5785 11810,5785 12355,5785 13048,5869 13692,6484 13993,6771 14364,7379 14364,8267 14364,8989 14223,9625 13776,10011 Z M 14626,6254 C 13864,5456 12696,5456 11822,5456 L 9858,5456 C 9824,5456 9795,5485 9795,5519 9795,5554 9822,5579 9858,5581 9895,5585 9936,5593 9976,5603 10206,5652 10262,5763 10276,6001 10291,6225 10291,6457 10291,7519 L 10291,8751 C 10291,9395 10291,9947 10256,10241 10227,10444 10253,10530 10053,10626 9920,10690 9803,10699 9740,10701 9661,10705 9584,10691 9532,10661 9341,10552 9253,10394 9189,9955 L 8545,5624 C 8531,5528 8447,5456 8350,5456 8274,5456 8206,5499 8173,5568 L 6309,9270 4407,5567 C 4375,5499 4306,5456 4230,5456 L 4222,5456 C 4126,5456 4043,5527 4029,5623 L 3333,10143 C 3298,10381 3242,10653 3047,10696 3008,10704 2907,10703 2884,10703 2802,10703 2665,10688 2589,10670 2461,10643 2387,10519 2347,10422 2317,10350 2304,10273 2304,10197 L 2304,5426 C 2304,5367 2237,5330 2187,5361 L 771,6258 C 749,6271 735,6295 735,6323 735,6377 791,6414 842,6393 L 1327,6199 1327,10200 C 1327,10275 1313,10349 1284,10418 1244,10514 1192,10597 1069,10645 986,10678 957,10690 861,10705 826,10710 796,10736 796,10774 796,10812 827,10842 865,10842 L 2845,10842 2879,10842 4111,10842 C 4148,10842 4178,10812 4180,10775 4180,10738 4150,10717 4113,10705 4075,10695 4065,10693 4013,10671 3900,10623 3836,10591 3836,10458 3836,10346 3843,10255 3857,10129 L 4235,7401 6045,10842 C 6084,10842 7810,7324 7810,7324 L 8258,10367 C 8285,10562 8293,10606 8222,10667 8193,10693 8165,10722 8095,10736 8069,10742 8051,10764 8052,10790 8052,10818 8075,10842 8105,10842 L 9751,10842 9752,10842 10312,10842 11395,10842 12199,10842 C 13493,10842 14220,10346 14542,10017 14933,9619 15304,8948 15304,8064 15304,7233 14976,6617 14626,6254 Z"/>
              </g>
            </g>
          </g>
        </g>
      </g>
    </g>
  </g>
</svg>